<svg class="car-svg" xmlns="http://www.w3.org/2000/svg" version="1.0"  width="100px" height="35px" viewBox="0 0 1280.000000 640.000000" preserveAspectRatio="xMidYMid meet">
    <g class="car-svg-transform"  fill="#000"  stroke="none">
    <path id="bike-14-bike-14" fill-rule="evenodd" clip-rule="evenodd"  class="car-svg-fill" fill="#3E5266" d="M846.0039,300.5766
	c45.3408,0,86.2832,18.3165,115.9521,47.9649C991.6738,378.3091,1010,419.2817,1010,464.564
	c0,45.3017-18.3262,86.3134-48.0439,115.9521c-29.6689,29.6689-70.6807,48.0742-115.9521,48.0742
	c-45.2832,0-86.3242-18.4053-115.9629-48.0742c-29.709-29.6387-48.0742-70.6504-48.0742-115.9521
	c0-45.2823,18.3652-86.2549,48.0742-116.0225c11.3916-11.3613,24.5293-21.1367,38.9199-28.8008l-11.9638-30.3291l-12.2901,4.7051
	l-28.248-63.1055c-69.2402,45.4204-117.876,121.4072-124.5733,224.0537l-8.7978-0.5517c0.0391,0.5517,0.1182,1.1435,0.1973,1.667
	c-41.5645,0-113.5562,0-155.189,0c-0.4341-22.5577-3.5313-44.1084-9.1235-64.4668l-95.4961,34.374
	c2.9785,12.3682,4.5566,25.1904,4.5566,38.4766c0,45.3017-18.4053,86.3134-48.0737,115.9521
	c-29.6294,29.6689-70.6607,48.0742-115.9331,48.0742c-45.3116,0-86.3037-18.4053-116.0513-48.0742
	C18.3457,550.8774,0,509.8657,0,464.564c0-45.2823,18.3457-86.2549,47.9751-116.0225
	c29.7476-29.6484,70.7397-47.9649,116.0513-47.9649c39.2754,0,75.2763,13.7598,103.5053,36.7706l70.0494-66.8238
	c-22.5284-17.9511-49.1192-33.1704-79.834-45.5981c-78.9947-26.9756-159.065-28.4751-240.0127-8.1763
	c-0.4541-5.938-0.9571-11.8559-1.4204-17.833c46.0024-12.4673,92.0737-18.5923,138.1157-18.6313
	c7.5254-16.3633,16.126-37.0762,22.3696-48.4688c27.4888,0.4346,56.3589,0.8389,86.1362,0.957
	c20.5948,35.1529,67.6425,71.0352,117.9941,89.5982c24.1357,8.8769,49.2969,13.9956,73.0083,13.4536
	c24.9243-0.6118,48.1328-7.5459,66.9321-22.8633c24.1748-19.7461,40.2822-52.7095,41.998-103.1504
	c37.8945-7.8906,73.8759-18.3257,106.7207-32.0752c-4.1231-10.248-7.5458-18.957-9.9034-25.0923l-34.3046-2.1303
	c-2.6036,3.4917-6.8047,5.6914-11.5587,5.415l-85.545-3.9258c-7.8418-0.3847-14.2714-6.9931-14.2714-14.874V13.585
	c0-7.8116,6.4296-13.9073,14.2714-13.5718l85.545,3.896c7.6933,0.4043,13.9658,6.8354,14.2422,14.5088l43.0927,2.6235
	c6.46,0.0791,12.5459,4.0835,14.9424,10.4453l60.7969,145.5723c76.5098-24.4414,166.6601-22.3008,256.1797,6.4604l-5.1983,16.146
	c-75.9765-24.4214-154.4384-23.0405-221.9336,1.6079l23.958,71.7554l-12.7636,4.8726l11.6592,29.5502
	C813.75,302.9736,829.6309,300.5766,846.0039,300.5766L846.0039,300.5766z M229.4102,373.7915
	c-18.3951-13.2949-40.982-21.1465-65.3838-21.1465c-30.9312,0-58.8838,12.5664-79.1231,32.835
	c-20.2593,20.2392-32.8056,48.1631-32.8056,79.084c0,30.8818,12.5463,58.8642,32.8056,79.1035
	c20.2393,20.2588,48.1919,32.7363,79.1231,32.7363c30.8525,0,58.8447-12.4775,79.0644-32.7363
	c20.2783-20.2393,32.7852-48.2217,32.7852-79.1035c0-7.003-0.6709-13.9268-1.9131-20.6241l-65.4336,23.5733
	c-1.2622,21.6592-19.1836,38.8808-41.2183,38.8808c-22.8335,0-41.2973-18.5029-41.2973-41.3271
	c0-22.834,18.4638-41.2676,41.2973-41.2676c2.9888,0,5.8882,0.3154,8.729,0.9463L229.4102,373.7915L229.4102,373.7915z
	 M844.7012,423.8091c0.4931-0.0098,0.9765-0.0098,1.4599-0.0098c22.7744,0,41.2979,18.4336,41.2979,41.2676
	c0,22.8242-18.5235,41.3271-41.2979,41.3271s-41.3076-18.5029-41.3076-41.3271c0-10.5733,4.0049-20.2393,10.5536-27.5586
	l-27.124-68.8154c-7.8311,4.7841-14.9727,10.3271-21.3828,16.7871c-20.25,20.2392-32.7266,48.1631-32.7266,79.084
	c0,30.8818,12.4766,58.8642,32.7266,79.1035c20.2383,20.2588,48.2109,32.7363,79.1035,32.7363
	c30.8906,0,58.8438-12.4775,79.1035-32.7363c20.2589-20.2393,32.7852-48.2217,32.7852-79.1035
	c0-30.9209-12.5264-58.8448-32.7852-79.084c-20.2597-20.2686-48.2129-32.835-79.1035-32.835c-9.666,0-19.0176,1.2822-27.9726,3.541
	L844.7012,423.8091L844.7012,423.8091z M530.3584,115.8574c-88.6113-7.3974-166.6992-2.1401-228.5225,16.7974
	C360.2563,201.0859,520.6924,257.9282,530.3584,115.8574z"/>
    </g>
  </svg>
